<svg width="800" height="600" viewBox="0 0 800 600" xmlns="http://www.w3.org/2000/svg">
  <defs>
    <linearGradient id="bg-gradient" x1="0%" y1="0%" x2="100%" y2="100%">
      <stop offset="0%" style="stop-color:#6366f1;stop-opacity:1" />
      <stop offset="100%" style="stop-color:#4f46e5;stop-opacity:1" />
    </linearGradient>
    <linearGradient id="card-gradient" x1="0%" y1="0%" x2="100%" y2="100%">
      <stop offset="0%" style="stop-color:#ffffff;stop-opacity:0.95" />
      <stop offset="100%" style="stop-color:#f8fafc;stop-opacity:0.95" />
    </linearGradient>
    <filter id="shadow" x="-20%" y="-20%" width="140%" height="140%">
      <feDropShadow dx="0" dy="4" stdDeviation="8" flood-color="#000000" flood-opacity="0.1"/>
    </filter>
  </defs>
  
  <!-- Background -->
  <rect width="800" height="600" fill="url(#bg-gradient)"/>
  
  <!-- Decorative elements -->
  <circle cx="100" cy="100" r="50" fill="rgba(99,102,241,0.2)"/>
  <circle cx="700" cy="500" r="60" fill="rgba(99,102,241,0.2)"/>
  
  <!-- Main content area -->
  <rect x="50" y="50" width="700" height="500" rx="20" fill="url(#card-gradient)" filter="url(#shadow)"/>
  
  <!-- Header -->
  <rect x="80" y="80" width="640" height="80" rx="12" fill="#6366f1" opacity="0.1"/>
  
  <!-- Complexity Graph -->
  <g transform="translate(100, 200)">
    <!-- Graph Background -->
    <rect x="0" y="0" width="400" height="200" rx="8" fill="#f8fafc" stroke="#e2e8f0" stroke-width="2"/>
    
    <!-- Y-axis labels -->
    <text x="20" y="30" fill="#6366f1" font-family="Arial, sans-serif" font-size="10" font-weight="bold">O(n²)</text>
    <text x="20" y="80" fill="#6366f1" font-family="Arial, sans-serif" font-size="10" font-weight="bold">O(n log n)</text>
    <text x="20" y="130" fill="#6366f1" font-family="Arial, sans-serif" font-size="10" font-weight="bold">O(n)</text>
    <text x="20" y="180" fill="#6366f1" font-family="Arial, sans-serif" font-size="10" font-weight="bold">O(1)</text>
    
    <!-- Complexity curves -->
    <!-- O(n²) - Quadratic -->
    <path d="M 50 30 Q 150 50 250 80 Q 350 120 400 180" stroke="#ef4444" stroke-width="3" fill="none"/>
    <text x="420" y="180" fill="#ef4444" font-family="Arial, sans-serif" font-size="10" font-weight="bold">O(n²)</text>
    
    <!-- O(n log n) - Linearithmic -->
    <path d="M 50 80 Q 150 100 250 120 Q 350 140 400 160" stroke="#f59e0b" stroke-width="3" fill="none"/>
    <text x="420" y="160" fill="#f59e0b" font-family="Arial, sans-serif" font-size="10" font-weight="bold">O(n log n)</text>
    
    <!-- O(n) - Linear -->
    <path d="M 50 130 Q 150 140 250 150 Q 350 160 400 170" stroke="#10b981" stroke-width="3" fill="none"/>
    <text x="420" y="170" fill="#10b981" font-family="Arial, sans-serif" font-size="10" font-weight="bold">O(n)</text>
    
    <!-- O(1) - Constant -->
    <line x1="50" y1="180" x2="400" y2="180" stroke="#3b82f6" stroke-width="3"/>
    <text x="420" y="185" fill="#3b82f6" font-family="Arial, sans-serif" font-size="10" font-weight="bold">O(1)</text>
  </g>
  
  <!-- Algorithm Examples -->
  <g transform="translate(520, 200)">
    <rect x="0" y="0" width="250" height="200" rx="8" fill="#1e293b" opacity="0.9"/>
    
    <!-- Algorithm examples -->
    <text x="10" y="20" fill="#6366f1" font-family="monospace" font-size="10">// Time Complexity Analysis</text>
    <text x="10" y="40" fill="#ef4444" font-family="monospace" font-size="10">Bubble Sort: O(n²)</text>
    <text x="10" y="60" fill="#f59e0b" font-family="monospace" font-size="10">Merge Sort: O(n log n)</text>
    <text x="10" y="80" fill="#10b981" font-family="monospace" font-size="10">Linear Search: O(n)</text>
    <text x="10" y="100" fill="#3b82f6" font-family="monospace" font-size="10">Array Access: O(1)</text>
    <text x="10" y="120" fill="#8b5cf6" font-family="monospace" font-size="10">Binary Search: O(log n)</text>
    <text x="10" y="140" fill="#c678dd" font-family="monospace" font-size="10">// Space Complexity</text>
    <text x="10" y="160" fill="#c678dd" font-family="monospace" font-size="10">// Memory Usage Analysis</text>
    <text x="10" y="180" fill="#c678dd" font-family="monospace" font-size="10">// Algorithm Optimization</text>
  </g>
  
  <!-- Data Structures -->
  <g transform="translate(100, 420)">
    <rect x="0" y="0" width="670" height="60" rx="8" fill="#f8fafc" stroke="#e2e8f0" stroke-width="2"/>
    
    <!-- Data Structures -->
    <rect x="10" y="10" width="100" height="40" rx="6" fill="#6366f1" opacity="0.8"/>
    <text x="60" y="35" text-anchor="middle" fill="white" font-family="Arial, sans-serif" font-size="9" font-weight="bold">Arrays</text>
    
    <rect x="120" y="10" width="100" height="40" rx="6" fill="#8b5cf6" opacity="0.8"/>
    <text x="170" y="35" text-anchor="middle" fill="white" font-family="Arial, sans-serif" font-size="9" font-weight="bold">Linked Lists</text>
    
    <rect x="230" y="10" width="100" height="40" rx="6" fill="#10b981" opacity="0.8"/>
    <text x="280" y="35" text-anchor="middle" fill="white" font-family="Arial, sans-serif" font-size="9" font-weight="bold">Trees</text>
    
    <rect x="340" y="10" width="100" height="40" rx="6" fill="#f59e0b" opacity="0.8"/>
    <text x="390" y="35" text-anchor="middle" fill="white" font-family="Arial, sans-serif" font-size="9" font-weight="bold">Graphs</text>
    
    <rect x="450" y="10" width="100" height="40" rx="6" fill="#ef4444" opacity="0.8"/>
    <text x="500" y="35" text-anchor="middle" fill="white" font-family="Arial, sans-serif" font-size="9" font-weight="bold">Hash Tables</text>
    
    <rect x="560" y="10" width="100" height="40" rx="6" fill="#3b82f6" opacity="0.8"/>
    <text x="610" y="35" text-anchor="middle" fill="white" font-family="Arial, sans-serif" font-size="9" font-weight="bold">Heaps</text>
  </g>
  
  <!-- Title -->
  <text x="400" y="120" text-anchor="middle" fill="#1f2937" font-family="Arial, sans-serif" font-size="24" font-weight="bold">Algorithm Complexity Analysis</text>
  <text x="400" y="150" text-anchor="middle" fill="#6b7280" font-family="Arial, sans-serif" font-size="14">Time & Space Complexity Analysis</text>
  
  <!-- Decorative elements -->
  <g transform="translate(650, 200)">
    <circle cx="0" cy="0" r="20" fill="#6366f1" opacity="0.3"/>
    <circle cx="0" cy="0" r="12" fill="#6366f1" opacity="0.6"/>
    <circle cx="0" cy="0" r="6" fill="#6366f1" opacity="0.9"/>
  </g>
  
  <g transform="translate(150, 500)">
    <rect x="0" y="0" width="4" height="25" fill="#6366f1" opacity="0.5"/>
    <rect x="8" y="0" width="4" height="35" fill="#6366f1" opacity="0.7"/>
    <rect x="16" y="0" width="4" height="20" fill="#6366f1" opacity="0.3"/>
    <rect x="24" y="0" width="4" height="30" fill="#6366f1" opacity="0.6"/>
  </g>
</svg>
